<svg xmlns="http://www.w3.org/2000/svg" version="1.1" viewBox="0.00 0.00 301.00 70.00">
  <path fill="url(#s-grad)" stroke-width="3.00" stroke="#fff" d="   M 41.21 18.22   C 42.25 23.90 35.65 23.57 32.35 22.00   C 30.03 20.89 27.06 19.81 25.25 20.73   C 22.26 22.25 22.74 26.02 25.33 27.64   C 31.07 31.24 37.83 34.95 39.16 41.36   C 41.14 50.91 34.01 56.14 25.27 56.65   C 21.15 56.89 13.20 55.78 11.04 51.39   C 9.63 48.54 11.16 45.46 13.92 44.40   Q 15.65 43.73 18.59 44.65   C 21.18 45.45 28.76 48.04 28.53 42.69   Q 28.45 40.99 27.09 40.15   C 18.84 35.06 10.71 31.46 12.69 20.53   C 15.09 7.21 31.43 7.33 39.45 15.00   Q 40.86 16.35 41.21 18.22   Z"/>
  <path fill="none" stroke-width="3.00" stroke="#fff" d="   M 284.26 33.13   C 295.70 43.79 287.29 59.62 272.05 56.55   C 266.97 55.53 259.68 51.61 260.21 45.69   C 260.49 42.64 263.38 41.09 266.14 41.61   C 271.07 42.52 272.03 49.04 278.62 45.52   Q 279.09 45.27 279.20 44.75   C 280.88 36.91 268.15 38.86 269.95 31.96   C 271.05 27.71 281.41 26.33 277.73 21.08   C 275.29 17.61 269.68 21.72 267.00 21.42   C 261.59 20.81 261.07 15.01 265.37 12.46   Q 271.43 8.87 278.74 10.22   C 290.29 12.35 292.45 24.83 284.27 32.28   Q 283.80 32.70 284.26 33.13   Z"/>
  <path fill="none" stroke-width="3.00" stroke="#fff" d="   M 134.88 37.57   Q 137.82 44.37 140.55 51.25   C 140.79 51.84 140.75 53.04 140.39 53.69   Q 138.00 58.11 133.26 55.96   C 129.72 54.35 127.86 47.86 126.46 44.47   Q 126.25 43.98 125.72 43.98   L 110.27 43.97   Q 109.70 43.97 109.48 44.49   Q 106.97 50.39 104.35 54.58   C 102.24 57.96 97.02 57.91 95.11 54.68   C 93.83 52.52 94.85 49.95 95.87 47.88   Q 103.57 32.31 110.57 16.43   C 112.44 12.16 114.18 9.96 118.99 10.45   C 122.08 10.77 123.89 11.65 125.26 14.63   C 128.73 22.19 131.83 30.53 134.88 37.57   Z   M 114.46 33.50   A 0.32 0.32 0.0 0 0 114.74 33.95   L 121.67 34.05   A 0.32 0.32 0.0 0 0 121.97 33.61   L 118.62 25.56   A 0.32 0.32 0.0 0 0 118.03 25.55   L 114.46 33.50   Z"/>
  <path fill="none" stroke-width="3.00" stroke="#fff" d="   M 157.79 42.32   Q 157.64 48.25 157.72 50.50   C 157.93 56.23 151.73 58.49 148.30 54.27   C 147.16 52.87 147.40 51.38 146.80 49.67   Q 146.42 48.62 146.42 47.75   Q 146.30 31.75 146.41 15.75   Q 146.43 13.82 148.18 12.26   C 150.64 10.08 154.55 9.98 156.55 12.76   C 158.42 15.36 157.54 21.72 157.65 25.09   Q 157.67 25.72 158.16 25.33   Q 164.95 20.06 171.66 14.77   C 174.86 12.25 178.14 10.41 181.37 13.60   C 185.80 17.98 176.68 24.58 173.60 26.84   Q 172.00 28.02 166.73 33.39   Q 166.37 33.76 166.76 34.09   Q 174.53 40.73 182.17 47.30   Q 183.92 48.82 183.76 51.45   C 183.44 56.73 176.78 56.91 173.51 54.23   Q 165.98 48.06 158.27 42.09   Q 157.80 41.73 157.79 42.32   Z"/>
  <path fill="none" stroke-width="3.00" stroke="#fff" d="   M 78.17 38.07   A 0.13 0.13 0.0 0 0 78.40 38.00   Q 78.42 27.91 78.38 17.73   Q 78.37 14.65 79.03 13.39   C 80.62 10.33 85.81 10.16 87.71 12.97   Q 88.61 14.30 88.61 17.23   Q 88.62 32.84 88.45 48.44   Q 88.41 52.08 87.13 53.76   C 84.16 57.65 78.59 55.39 75.75 51.98   Q 67.42 41.97 59.54 31.27   A 0.44 0.44 0.0 0 0 58.75 31.53   L 58.76 51.54   Q 58.76 52.14 58.44 52.64   C 56.52 55.71 52.33 56.61 49.93 53.99   Q 48.51 52.46 48.44 48.88   Q 48.14 33.69 48.21 18.50   Q 48.24 12.50 52.79 11.41   C 56.16 10.60 59.53 12.54 61.59 15.17   Q 70.32 26.34 78.17 38.07   Z"/>
  <path fill="none" stroke-width="3.00" stroke="#fff" d="   M 200.46 39.09   L 200.34 45.12   A 0.89 0.88 -89.7 0 0 201.22 46.02   Q 209.02 46.03 217.00 46.05   C 220.98 46.06 221.86 52.17 219.54 54.59   Q 218.32 55.86 215.68 55.97   Q 202.56 56.52 195.02 56.37   Q 189.55 56.26 189.51 50.75   Q 189.34 26.12 189.72 17.00   Q 189.94 11.63 195.50 11.56   Q 206.32 11.42 217.13 12.03   C 223.83 12.40 223.47 21.86 216.22 21.92   Q 208.76 21.99 201.25 21.97   Q 200.65 21.97 200.64 22.56   L 200.45 28.43   Q 200.44 28.98 200.99 28.98   Q 208.43 29.04 215.84 29.06   C 218.13 29.07 219.63 31.72 219.57 33.87   C 219.43 38.26 215.93 38.70 212.17 38.68   Q 206.56 38.65 200.93 38.63   Q 200.47 38.63 200.46 39.09   Z"/>
  <path fill="none" stroke-width="3.00" stroke="#fff" d="   M 114.46 33.50   L 118.03 25.55   A 0.32 0.32 0.0 0 1 118.62 25.56   L 121.97 33.61   A 0.32 0.32 0.0 0 1 121.67 34.05   L 114.74 33.95   A 0.32 0.32 0.0 0 1 114.46 33.50   Z"/>
  <path fill="none" stroke-width="3.00" stroke="#fff" d="   M 246.33 44.10   Q 237.91 44.61 230.49 43.78   C 226.47 43.33 226.75 38.68 229.54 36.86   C 232.14 35.16 242.58 35.99 246.03 36.05   Q 248.42 36.10 249.55 36.65   C 252.20 37.94 252.46 41.40 250.01 43.02   Q 248.58 43.97 246.33 44.10   Z"/>
  <defs>
    <linearGradient id="s-grad" x1="0%" x2="100%">
      <stop offset="0%" stop-color="white" />
      <stop offset="100%" stop-color="#0000" />
    </linearGradient>
  </defs>
</svg>