<svg xmlns="http://www.w3.org/2000/svg"  viewBox="0 0 10 10">
  <style type="text/css">
    .st0{fill:none;stroke:#000000;stroke-width:2;stroke-linecap:round;stroke-linejoin:round;stroke-miterlimit:10;}
  </style>
  <!-- <polyline class="st0" points="17,3 13,7 17,11 "/> -->
  <path d="M2.4687 3.2813C1.9063 3.9063 1.5625 4.7188 1.5625 5.625c0 1.9063 1.5313 3.4375 3.4375 3.4375s3.4375-1.5313 3.4375-3.4375S6.9063 2.1875 5 2.1875l-.3125 0 h-0.6 v-0.015 l1.25 1.25 m-1.25 -1.25 l1.25 -1.25" 
  fill="none" stroke="white" stroke-width="1" stroke-linecap="round" stroke-linejoin="round" />

  <!-- <path xmlns="http://www.w3.org/2000/svg" class="st0" d="M7.9,10.5C6.1,12.5,5,15.1,5,18c0,6.1,4.9,11,11,11s11-4.9,11-11S22.1,7,16,7l-1,0"/> -->
</svg>